<svg xmlns="http://www.w3.org/2000/svg" viewBox="0 0 253.49 253.49"><defs><style>.cls-1{fill:#eef8fc;}.cls-2{fill:#1a5382;}</style></defs><title>アセット 3</title><g id="レイヤー_2" data-name="レイヤー 2"><g id="レイヤー_1-2" data-name="レイヤー 1"><g id="step2_icon.svg"><circle class="cls-1" cx="126.74" cy="126.74" r="126.74"/><circle class="cls-2" cx="166.63" cy="102.47" r="7.31" transform="translate(-14.38 28.29) rotate(-9.31)"/><path class="cls-2" d="M196.25,133.81,180.16,113c-3.51-3.81-8.2-2.32-10.88.7L161,121.24l-6-8.66a2.84,2.84,0,0,0-4.81,3l7.29,12.73a3.49,3.49,0,0,0,4.81,1.08c.13-.08,7.39-5.29,7.39-5.29,4.34,5.34,15.87,18.74,15.75,18.79l2.51,38.5a3.71,3.71,0,0,0,7.41,0l3.81-37.22C199.42,141.09,199.21,138.18,196.25,133.81Z"/><rect class="cls-2" x="138.66" y="94.82" width="11.67" height="15.99"/><rect class="cls-2" x="130.47" y="100" width="6.48" height="6.61"/><rect class="cls-2" x="142.99" y="112.23" width="3.02" height="13.7"/><rect class="cls-2" x="141.16" y="125.72" width="6.69" height="3.03"/><path class="cls-2" d="M144.39,185a1,1,0,0,1-1-1V127.23a1,1,0,1,1,2,0V184A1,1,0,0,1,144.39,185Z"/><path class="cls-2" d="M135,185h-.16a1,1,0,0,1-.82-1.14l9.24-56.79a1,1,0,1,1,2,.32L136,184.18A1,1,0,0,1,135,185Z"/><path class="cls-2" d="M153.63,185a1,1,0,0,1-1-.83l-9.24-56.79a1,1,0,1,1,2-.32l9.24,56.79a1,1,0,0,1-.82,1.14Z"/><path class="cls-2" d="M105.24,120.45l-6.69-25c-1-4-5.07-8.51-14-8.51s-11.43,2.81-14.46,5.91l-8.46,9.13a3.51,3.51,0,0,0-.31,3.85l7.27,11.5a2.79,2.79,0,0,0,3.87,1,2.9,2.9,0,0,0,1.11-3.9l-4.82-9.56,5.26-5,2.65,11L66,134.84h5.53L65,160.16a3.21,3.21,0,0,0,2.2,4.09,3.47,3.47,0,0,0,4.19-2.33l10-27.08h2.78l.07,7,.56,19.29A3.2,3.2,0,0,0,88,164.47a3.48,3.48,0,0,0,3.45-3.34s.82-12.27,1.69-26.3h4.14l-3.76-23.51s.82-4.82,1-5.47L99.76,122a2.84,2.84,0,0,0,5.48-1.5Z"/><circle class="cls-2" cx="83.27" cy="78.02" r="7.31"/><path class="cls-2" d="M62.17,80c.4-3.36,2.28-5.63,5.83-5.83-3.56-.2-5.43-2.47-5.83-5.83-.4,3.36-2.28,5.63-5.83,5.83C59.89,74.38,61.77,76.65,62.17,80Z"/><path class="cls-2" d="M108.38,111.2c.3-2.52,1.71-4.23,4.38-4.38-2.67-.15-4.08-1.85-4.38-4.38-.3,2.52-1.71,4.22-4.38,4.38C106.67,107,108.08,108.68,108.38,111.2Z"/><path class="cls-2" d="M59.19,121.1c.34-2.83,1.92-4.75,4.92-4.92-3-.17-4.59-2.09-4.92-4.92-.34,2.83-1.92,4.75-4.92,4.92C57.27,116.35,58.86,118.27,59.19,121.1Z"/><path class="cls-2" d="M102.23,81.48A3.52,3.52,0,0,1,105.69,78a3.51,3.51,0,0,1-3.47-3.46A3.51,3.51,0,0,1,98.76,78,3.52,3.52,0,0,1,102.23,81.48Z"/></g></g></g></svg>