<svg xmlns="http://www.w3.org/2000/svg" viewBox="0 0 253.49 253.49"><defs><style>.cls-1{fill:#eef8fc;}.cls-2{fill:#1c5382;}</style></defs><title>アセット 1</title><g id="レイヤー_2" data-name="レイヤー 2"><g id="レイヤー_1-2" data-name="レイヤー 1"><g id="step3_icon.svg"><circle class="cls-1" cx="126.74" cy="126.74" r="126.74"/><path class="cls-2" d="M178.76,84.37h-104A11.72,11.72,0,0,0,63,96.09V157.4a11.72,11.72,0,0,0,11.72,11.72h104a11.72,11.72,0,0,0,11.72-11.72V96.09A11.72,11.72,0,0,0,178.76,84.37ZM93.7,104.69A11.71,11.71,0,1,1,82,116.39,11.71,11.71,0,0,1,93.7,104.69Zm0,45.19c-8,0-16.28-2.78-15-10.49a21.51,21.51,0,0,1,5.08-9.49,2.29,2.29,0,0,1,1.72-.12,15.56,15.56,0,0,0,16.38,0,2.29,2.29,0,0,1,1.72.12,21.53,21.53,0,0,1,5.08,9.49C110,147.09,101.74,149.87,93.7,149.87Zm64.37-4.46H122.22v-3.49h35.85Zm17.21-11H121.94V131h53.33Zm0-11H121.94V120h53.33Zm0-11H121.94v-3.49h53.33Z"/></g></g></g></svg>