<svg xmlns="http://www.w3.org/2000/svg" viewBox="0 0 253.49 253.49"><defs><style>.cls-1{fill:#eef8fc;}.cls-2{fill:#1a5382;}.cls-3{fill:none;stroke:#1a5382;stroke-linecap:round;stroke-miterlimit:10;stroke-width:6.24px;}</style></defs><title>アセット 2</title><g id="レイヤー_2" data-name="レイヤー 2"><g id="レイヤー_1-2" data-name="レイヤー 1"><g id="step1_icon.svg"><circle class="cls-1" cx="126.74" cy="126.74" r="126.74"/><polygon class="cls-2" points="140.96 182.39 116.18 195.83 116.18 168.95 140.96 182.39"/><ellipse class="cls-2" cx="126.77" cy="131.45" rx="6.64" ry="6.7"/><path class="cls-2" d="M151.36,116.05a5.3,5.3,0,0,0-3.77-1.57h-5.76a1.2,1.2,0,0,1-1.1-.72L139,109.89a5.32,5.32,0,0,0-4.86-3.16H119.39a5.33,5.33,0,0,0-4.86,3.16l-1.72,3.86a1.2,1.2,0,0,1-1.1.72h-5.76a5.34,5.34,0,0,0-5.32,5.35v24.79a5.36,5.36,0,0,0,1.55,3.78,5.31,5.31,0,0,0,3.77,1.57h41.65a5.29,5.29,0,0,0,3.77-1.57,5.35,5.35,0,0,0,1.55-3.78V119.83A5.35,5.35,0,0,0,151.36,116.05Zm-16.07,24a12,12,0,0,1-17,0,12.2,12.2,0,0,1,0-17.16,12,12,0,0,1,17,0,12.2,12.2,0,0,1,0,17.16Zm12.51-15.91h-3.66v-3.66h3.66Z"/><path class="cls-3" d="M126.74,183A53.36,53.36,0,0,1,87.37,93.61"/><path class="cls-3" d="M126.74,76.26a53.36,53.36,0,0,1,36.4,92.37"/><polygon class="cls-2" points="113.9 77.31 139.68 63.66 139.68 90.95 113.9 77.31"/><circle class="cls-2" cx="126.77" cy="131.43" r="8.56"/></g></g></g></svg>