<svg xmlns="http://www.w3.org/2000/svg" viewBox="0 0 253.49 253.49"><defs><style>.cls-1{fill:#eef8fc;}.cls-2{fill:#1a5382;}</style></defs><title>アセット 4</title><g id="レイヤー_2" data-name="レイヤー 2"><g id="レイヤー_1-2" data-name="レイヤー 1"><g id="step4_icon.svg"><circle class="cls-1" cx="126.74" cy="126.74" r="126.74"/><circle class="cls-2" cx="125.6" cy="88.58" r="9.09"/><path class="cls-2" d="M165.13,123.36l-14.71-.95-6-9.68c-5.54-8.62-9.44-11.7-18.83-12-9.39.28-13.29,3.36-18.83,12l-6,9.68-14.71.95a3.54,3.54,0,1,0,0,7.07l17,.8a4.33,4.33,0,0,0,3.33-1.56,8.88,8.88,0,0,0,1.23-1.11l5.09-4.59,1.82,69.67a4.61,4.61,0,1,0,9.22,0L125.6,152l1.83,41.6a4.61,4.61,0,0,0,9.22,0L138.48,124l5.09,4.59a8.83,8.83,0,0,0,1.23,1.11,4.33,4.33,0,0,0,3.33,1.56l17-.8a3.54,3.54,0,1,0,0-7.07Z"/><path class="cls-2" d="M96,93.13a7.69,7.69,0,0,0-9.9,3.94,7.69,7.69,0,0,0-9.9-3.94c-4,1.59-5.46,5.79-4.75,9.82,1.64,9.24,13.55,15.23,14.11,15.49l.54.25.54-.25c.55-.26,12.47-6.25,14.11-15.49C101.48,98.92,100,94.71,96,93.13Z"/><ellipse class="cls-2" cx="167.15" cy="106.88" rx="3.82" ry="3.85"/><path class="cls-2" d="M181.3,98a3,3,0,0,0-2.17-.91h-3.31a.69.69,0,0,1-.63-.42l-1-2.22a3.06,3.06,0,0,0-2.79-1.82h-8.49a3.06,3.06,0,0,0-2.79,1.82l-1,2.22a.69.69,0,0,1-.63.42h-3.31a3.07,3.07,0,0,0-3.06,3.08v14.26a3.09,3.09,0,0,0,.89,2.17,3.05,3.05,0,0,0,2.17.9h24a3,3,0,0,0,2.17-.9,3.08,3.08,0,0,0,.89-2.17V100.2A3.08,3.08,0,0,0,181.3,98Zm-9.24,13.79a6.89,6.89,0,0,1-9.81,0,7,7,0,0,1,0-9.87,6.89,6.89,0,0,1,9.81,0,7,7,0,0,1,0,9.87Zm7.2-9.15h-2.1v-2.1h2.1Z"/><circle class="cls-2" cx="167.15" cy="106.95" r="4.8"/></g></g></g></svg>